<svg width="24" height="25" viewBox="0 0 24 25" fill="none" xmlns="http://www.w3.org/2000/svg">
<path d="M21.9383 11.0418H13.4313V2.29183C13.4313 1.90506 13.2819 1.53412 13.016 1.26063C12.7502 0.987142 12.3895 0.833496 12.0135 0.833496C11.6375 0.833496 11.2768 0.987142 11.0109 1.26063C10.745 1.53412 10.5957 1.90506 10.5957 2.29183V11.0418H2.08872C1.71269 11.0418 1.35206 11.1955 1.08617 11.469C0.820276 11.7425 0.670898 12.1134 0.670898 12.5002C0.670898 12.8869 0.820276 13.2579 1.08617 13.5314C1.35206 13.8049 1.71269 13.9585 2.08872 13.9585H10.5957V22.7085C10.5957 23.0953 10.745 23.4662 11.0109 23.7397C11.2768 24.0132 11.6375 24.1668 12.0135 24.1668C12.3895 24.1668 12.7502 24.0132 13.016 23.7397C13.2819 23.4662 13.4313 23.0953 13.4313 22.7085V13.9585H21.9383C22.3143 13.9585 22.6749 13.8049 22.9408 13.5314C23.2067 13.2579 23.3561 12.8869 23.3561 12.5002C23.3561 12.1134 23.2067 11.7425 22.9408 11.469C22.6749 11.1955 22.3143 11.0418 21.9383 11.0418Z" fill="black"/>
</svg>
