<svg width="24" height="23" viewBox="0 0 24 23" fill="none" xmlns="http://www.w3.org/2000/svg">
<path d="M18.9527 10.3715H13.058V4.71434C13.058 4.46428 12.9545 4.22446 12.7702 4.04764C12.586 3.87082 12.3361 3.77148 12.0755 3.77148C11.8149 3.77148 11.565 3.87082 11.3808 4.04764C11.1966 4.22446 11.093 4.46428 11.093 4.71434V10.3715H5.19828C4.93772 10.3715 4.68782 10.4708 4.50358 10.6476C4.31933 10.8245 4.21582 11.0643 4.21582 11.3143C4.21582 11.5644 4.31933 11.8042 4.50358 11.981C4.68782 12.1579 4.93772 12.2572 5.19828 12.2572H11.093V17.9143C11.093 18.1644 11.1966 18.4042 11.3808 18.581C11.565 18.7579 11.8149 18.8572 12.0755 18.8572C12.3361 18.8572 12.586 18.7579 12.7702 18.581C12.9545 18.4042 13.058 18.1644 13.058 17.9143V12.2572H18.9527C19.2133 12.2572 19.4632 12.1579 19.6474 11.981C19.8317 11.8042 19.9352 11.5644 19.9352 11.3143C19.9352 11.0643 19.8317 10.8245 19.6474 10.6476C19.4632 10.4708 19.2133 10.3715 18.9527 10.3715Z" fill="white"/>
</svg>
