<svg width="35" height="35" viewBox="0 0 35 35" fill="none" xmlns="http://www.w3.org/2000/svg">
<path d="M10.2085 8.75016C10.5953 8.75016 10.9662 8.59652 11.2397 8.32303C11.5132 8.04954 11.6668 7.6786 11.6668 7.29183C11.6668 6.90506 11.5132 6.53412 11.2397 6.26063C10.9662 5.98714 10.5953 5.8335 10.2085 5.8335H7.29183C6.90506 5.8335 6.53412 5.98714 6.26063 6.26063C5.98714 6.53412 5.8335 6.90506 5.8335 7.29183V27.7085C5.8335 28.0953 5.98714 28.4662 6.26063 28.7397C6.53412 29.0132 6.90506 29.1668 7.29183 29.1668H10.2085C10.5953 29.1668 10.9662 29.0132 11.2397 28.7397C11.5132 28.4662 11.6668 28.0953 11.6668 27.7085C11.6668 27.3217 11.5132 26.9508 11.2397 26.6773C10.9662 26.4038 10.5953 26.2502 10.2085 26.2502H8.75016V8.75016H10.2085Z" fill="white"/>
<path d="M30.3625 16.6544L26.25 10.8211C26.027 10.5067 25.6885 10.2934 25.3087 10.2278C24.9288 10.1622 24.5385 10.2497 24.2229 10.4711C24.0652 10.5816 23.9309 10.7223 23.8279 10.885C23.7248 11.0477 23.655 11.2292 23.6224 11.419C23.5899 11.6088 23.5953 11.8032 23.6383 11.9909C23.6813 12.1787 23.761 12.356 23.8729 12.5128L26.3812 16.0419H26.25H14.5833C14.1966 16.0419 13.8256 16.1956 13.5521 16.4691C13.2786 16.7426 13.125 17.1135 13.125 17.5003C13.125 17.887 13.2786 18.258 13.5521 18.5315C13.8256 18.805 14.1966 18.9586 14.5833 18.9586H26.25L23.625 22.4586C23.5101 22.6118 23.4265 22.7862 23.379 22.9717C23.3314 23.1572 23.3209 23.3503 23.348 23.5398C23.3751 23.7294 23.4392 23.9118 23.5368 24.0766C23.6344 24.2414 23.7635 24.3854 23.9167 24.5003C24.1691 24.6896 24.4761 24.7919 24.7917 24.7919C25.0181 24.7919 25.2414 24.7392 25.4439 24.638C25.6464 24.5367 25.8225 24.3897 25.9583 24.2086L30.3333 18.3753C30.5201 18.1286 30.6236 17.829 30.6288 17.5196C30.6341 17.2103 30.5408 16.9073 30.3625 16.6544Z" fill="white"/>
</svg>
