<svg width="20" height="19" viewBox="0 0 20 19" fill="none" xmlns="http://www.w3.org/2000/svg">
<path d="M17.0502 15.2713L14.3337 12.5875C15.2101 11.4811 15.6857 10.1149 15.6839 8.70834C15.6839 7.45572 15.3091 6.23124 14.6067 5.18972C13.9044 4.14821 12.9061 3.33645 11.7382 2.8571C10.5703 2.37774 9.28508 2.25232 8.0452 2.4967C6.80531 2.74107 5.66641 3.34426 4.7725 4.22999C3.8786 5.11573 3.26984 6.24422 3.02321 7.47276C2.77658 8.70131 2.90316 9.97473 3.38694 11.132C3.87072 12.2893 4.68997 13.2784 5.74109 13.9743C6.79221 14.6702 8.028 15.0417 9.29217 15.0417C10.7117 15.0434 12.0905 14.5722 13.2071 13.7038L15.9157 16.3954C15.9899 16.4696 16.0783 16.5285 16.1757 16.5687C16.273 16.6089 16.3774 16.6296 16.4829 16.6296C16.5884 16.6296 16.6928 16.6089 16.7902 16.5687C16.8875 16.5285 16.9759 16.4696 17.0502 16.3954C17.1251 16.3218 17.1845 16.2343 17.2251 16.1378C17.2656 16.0413 17.2865 15.9378 17.2865 15.8333C17.2865 15.7288 17.2656 15.6254 17.2251 15.5289C17.1845 15.4324 17.1251 15.3448 17.0502 15.2713ZM4.49834 8.70834C4.49834 7.76888 4.77949 6.85051 5.30624 6.06938C5.833 5.28824 6.58169 4.67942 7.45765 4.31991C8.33361 3.96039 9.29749 3.86633 10.2274 4.04961C11.1573 4.23289 12.0115 4.68528 12.6819 5.34958C13.3524 6.01388 13.8089 6.86025 13.9939 7.78166C14.1789 8.70307 14.0839 9.65813 13.7211 10.5261C13.3583 11.394 12.7438 12.1359 11.9555 12.6578C11.1671 13.1798 10.2403 13.4583 9.29217 13.4583C8.02077 13.4583 6.80144 12.9579 5.90242 12.0671C5.0034 11.1763 4.49834 9.96811 4.49834 8.70834Z" fill="#000"/>
</svg>
