<svg width="16" height="15" viewBox="0 0 16 15" fill="none" xmlns="http://www.w3.org/2000/svg">
<path d="M9.77778 1.65872C9.54203 1.65872 9.31594 1.57134 9.14924 1.41581C8.98254 1.26027 8.88889 1.04932 8.88889 0.829361C8.88889 0.609401 8.98254 0.39845 9.14924 0.242914C9.31594 0.0873789 9.54203 0 9.77778 0H15.1111C15.3469 0 15.573 0.0873789 15.7397 0.242914C15.9064 0.39845 16 0.609401 16 0.829361V5.80553C16 6.02549 15.9064 6.23644 15.7397 6.39198C15.573 6.54751 15.3469 6.63489 15.1111 6.63489C14.8754 6.63489 14.6493 6.54751 14.4826 6.39198C14.3159 6.23644 14.2222 6.02549 14.2222 5.80553V2.83144L5.96178 10.5387C5.79413 10.6898 5.5696 10.7734 5.33653 10.7715C5.10347 10.7696 4.88052 10.6824 4.71572 10.5286C4.55091 10.3748 4.45743 10.1668 4.4554 9.94935C4.45338 9.7319 4.54297 9.5224 4.70489 9.36598L12.9653 1.65872H9.77778ZM0 3.31745C0 2.87753 0.187301 2.45562 0.520699 2.14455C0.854097 1.83348 1.30628 1.65872 1.77778 1.65872H6.22222C6.45797 1.65872 6.68406 1.7461 6.85076 1.90164C7.01746 2.05717 7.11111 2.26812 7.11111 2.48808C7.11111 2.70804 7.01746 2.919 6.85076 3.07453C6.68406 3.23007 6.45797 3.31745 6.22222 3.31745H1.77778V13.2698H12.4444V9.12298C12.4444 8.90302 12.5381 8.69206 12.7048 8.53653C12.8715 8.38099 13.0976 8.29361 13.3333 8.29361C13.5691 8.29361 13.7952 8.38099 13.9619 8.53653C14.1286 8.69206 14.2222 8.90302 14.2222 9.12298V13.2698C14.2222 13.7097 14.0349 14.1316 13.7015 14.4427C13.3681 14.7537 12.9159 14.9285 12.4444 14.9285H1.77778C1.30628 14.9285 0.854097 14.7537 0.520699 14.4427C0.187301 14.1316 0 13.7097 0 13.2698V3.31745Z" fill="#022B7D"/>
</svg>
