<svg width="18" height="18" viewBox="0 0 18 18" fill="none" xmlns="http://www.w3.org/2000/svg">
<path d="M9.00033 1.6665H3.50033C2.4878 1.6665 1.66699 2.48731 1.66699 3.49983V14.4999C1.66699 15.5123 2.4878 16.3332 3.50033 16.3332H14.5003C15.5129 16.3332 16.3337 15.5123 16.3337 14.4999V8.99986M14.88 5.71285L15.8753 4.71758C16.5912 4.00162 16.5912 2.84081 15.8753 2.12486C15.1593 1.4089 13.9985 1.4089 13.2825 2.12487L12.2873 3.12013M14.88 5.71285L9.34673 11.2462C9.0908 11.5021 8.76483 11.6766 8.40999 11.7476L5.71336 12.2868L6.25268 9.59029C6.32367 9.23535 6.49812 8.90939 6.75404 8.65345L12.2873 3.12013M14.88 5.71285L12.2873 3.12013" stroke="#FFB800" stroke-width="2" stroke-linecap="round" stroke-linejoin="round"/>
</svg>
