<svg width="24" height="25" viewBox="0 0 24 25" fill="none" xmlns="http://www.w3.org/2000/svg">
    <path d="M21.9387 11.0418H13.4318V2.29183C13.4318 1.90506 13.2824 1.53412 13.0165 1.26063C12.7506 0.987142 12.39 0.833496 12.014 0.833496C11.6379 0.833496 11.2773 0.987142 11.0114 1.26063C10.7455 1.53412 10.5962 1.90506 10.5962 2.29183V11.0418H2.08921C1.71318 11.0418 1.35255 11.1955 1.08666 11.469C0.820764 11.7425 0.671387 12.1134 0.671387 12.5002C0.671387 12.8869 0.820764 13.2579 1.08666 13.5314C1.35255 13.8049 1.71318 13.9585 2.08921 13.9585H10.5962V22.7085C10.5962 23.0953 10.7455 23.4662 11.0114 23.7397C11.2773 24.0132 11.6379 24.1668 12.014 24.1668C12.39 24.1668 12.7506 24.0132 13.0165 23.7397C13.2824 23.4662 13.4318 23.0953 13.4318 22.7085V13.9585H21.9387C22.3148 13.9585 22.6754 13.8049 22.9413 13.5314C23.2072 13.2579 23.3566 12.8869 23.3566 12.5002C23.3566 12.1134 23.2072 11.7425 22.9413 11.469C22.6754 11.1955 22.3148 11.0418 21.9387 11.0418Z" fill="black"/>
    </svg>
    